# xmcd
#
# Track frame offsets:
#	150
#	21254
#	43064
#	64202
#	85771
#	106559
#	119757
#	136832
#	165270
#	187134
#	209154
#	229740
#
# Disc length: 3446 seconds
#
# Revision: 1
# Processed by: cddbd v1.5.2PL0 Copyright (c) Steve Scherf et al.
# Submitted via: EZCDAudioConverter 8.5.0.1
#
DISCID=a60d740c
DTITLE=Stereolab - Margerine Eclipse 1/2
DYEAR=2004
DGENRE=
TTITLE0=Vonal Déclosion
TTITLE1=Need To Be
TTITLE2="...Sudden Stars"
TTITLE3=Cosmic Country Noir
TTITLE4=La Demeure
TTITLE5=Margerine Rock
TTITLE6=The Man With 100 Cells
TTITLE7=Margerine Melodie
TTITLE8=Hillbilly Motobike
TTITLE9=Feel And Triple
TTITLE10=Bop Scotch
TTITLE11=Dear Marge
EXTD=
EXTT0=
EXTT1=
EXTT2=
EXTT3=
EXTT4=
EXTT5=
EXTT6=
EXTT7=
EXTT8=
EXTT9=
EXTT10=
EXTT11=
PLAYORDER=
